<svg width="36" height="75" viewBox="0 0 36 75" fill="none" xmlns="http://www.w3.org/2000/svg">
<g style="mix-blend-mode:luminosity" filter="url(#filter0_b)">
<path d="M26.75 47.2812C26.75 45.3646 26.0729 43.75 24.7188 42.4375C23.3854 41.125 21.125 39.9375 17.9375 38.875C13.5 37.5208 10.2604 35.7604 8.21875 33.5938C6.19792 31.4062 5.1875 28.6354 5.1875 25.2812C5.1875 21.8646 6.17708 19.0625 8.15625 16.875C10.1562 14.6875 12.8958 13.3854 16.375 12.9688V6.125H21.0312V13C24.5312 13.4792 27.25 14.9479 29.1875 17.4062C31.1458 19.8646 32.125 23.2292 32.125 27.5H26.375C26.375 24.5625 25.6771 22.2292 24.2812 20.5C22.8854 18.7708 21 17.9062 18.625 17.9062C16.1458 17.9062 14.25 18.5521 12.9375 19.8438C11.625 21.1146 10.9688 22.8958 10.9688 25.1875C10.9688 27.3125 11.6562 29.0104 13.0312 30.2812C14.4271 31.5312 16.7083 32.6771 19.875 33.7188C23.0625 34.7396 25.5417 35.875 27.3125 37.125C29.1042 38.3542 30.4167 39.7917 31.25 41.4375C32.1042 43.0833 32.5312 45.0104 32.5312 47.2188C32.5312 50.7396 31.4688 53.5729 29.3438 55.7188C27.2396 57.8646 24.2812 59.1354 20.4688 59.5312V65.5H15.8438V59.5312C11.9688 59.1771 8.92708 57.8021 6.71875 55.4062C4.53125 52.9896 3.4375 49.7188 3.4375 45.5938H9.21875C9.21875 48.4896 9.97917 50.7188 11.5 52.2812C13.0208 53.8438 15.1771 54.625 17.9688 54.625C20.6979 54.625 22.8438 53.9688 24.4062 52.6562C25.9688 51.3438 26.75 49.5521 26.75 47.2812Z" fill="#7E8AF8"/>
</g>
<defs>
<filter id="filter0_b" x="-0.5625" y="2.125" width="37.0938" height="67.375" filterUnits="userSpaceOnUse" color-interpolation-filters="sRGB">
<feFlood flood-opacity="0" result="BackgroundImageFix"/>
<feGaussianBlur in="BackgroundImage" stdDeviation="2"/>
<feComposite in2="SourceAlpha" operator="in" result="effect1_backgroundBlur"/>
<feBlend mode="normal" in="SourceGraphic" in2="effect1_backgroundBlur" result="shape"/>
</filter>
</defs>
</svg>
