<svg width="114" height="108" viewBox="0 0 114 108" fill="none" xmlns="http://www.w3.org/2000/svg">
<rect x="1.5" y="1.5" width="111" height="105" rx="26.5" fill="white" stroke="#7E8AF8" stroke-width="3" stroke-dasharray="6 6"/>
<path d="M55.9375 58.4688C55.9375 63.6146 54.7604 67.7604 52.4062 70.9062C50.0521 74.0521 46.8646 75.625 42.8438 75.625C38.7396 75.625 35.5104 74.3229 33.1562 71.7188V88H27.375V41.1875H32.6562L32.9375 44.9375C35.2917 42.0208 38.5625 40.5625 42.75 40.5625C46.8125 40.5625 50.0208 42.0938 52.375 45.1562C54.75 48.2188 55.9375 52.4792 55.9375 57.9375V58.4688ZM50.1562 57.8125C50.1562 54 49.3438 50.9896 47.7188 48.7812C46.0938 46.5729 43.8646 45.4688 41.0312 45.4688C37.5312 45.4688 34.9062 47.0208 33.1562 50.125V66.2812C34.8854 69.3646 37.5312 70.9062 41.0938 70.9062C43.8646 70.9062 46.0625 69.8125 47.6875 67.625C49.3333 65.4167 50.1562 62.1458 50.1562 57.8125ZM83 66.0312C83 64.4688 82.4062 63.2604 81.2188 62.4062C80.0521 61.5312 78 60.7812 75.0625 60.1562C72.1458 59.5312 69.8229 58.7812 68.0938 57.9062C66.3854 57.0312 65.1146 55.9896 64.2812 54.7812C63.4688 53.5729 63.0625 52.1354 63.0625 50.4688C63.0625 47.6979 64.2292 45.3542 66.5625 43.4375C68.9167 41.5208 71.9167 40.5625 75.5625 40.5625C79.3958 40.5625 82.5 41.5521 84.875 43.5312C87.2708 45.5104 88.4688 48.0417 88.4688 51.125H82.6562C82.6562 49.5417 81.9792 48.1771 80.625 47.0312C79.2917 45.8854 77.6042 45.3125 75.5625 45.3125C73.4583 45.3125 71.8125 45.7708 70.625 46.6875C69.4375 47.6042 68.8438 48.8021 68.8438 50.2812C68.8438 51.6771 69.3958 52.7292 70.5 53.4375C71.6042 54.1458 73.5938 54.8229 76.4688 55.4688C79.3646 56.1146 81.7083 56.8854 83.5 57.7812C85.2917 58.6771 86.6146 59.7604 87.4688 61.0312C88.3438 62.2812 88.7812 63.8125 88.7812 65.625C88.7812 68.6458 87.5729 71.0729 85.1562 72.9062C82.7396 74.7188 79.6042 75.625 75.75 75.625C73.0417 75.625 70.6458 75.1458 68.5625 74.1875C66.4792 73.2292 64.8438 71.8958 63.6562 70.1875C62.4896 68.4583 61.9062 66.5938 61.9062 64.5938H67.6875C67.7917 66.5312 68.5625 68.0729 70 69.2188C71.4583 70.3438 73.375 70.9062 75.75 70.9062C77.9375 70.9062 79.6875 70.4688 81 69.5938C82.3333 68.6979 83 67.5104 83 66.0312Z" fill="#7E8AF8"/>
<path d="M33.1562 71.7188L33.8981 71.0481L32.1562 69.1214V71.7188H33.1562ZM33.1562 88V89H34.1562V88H33.1562ZM27.375 88H26.375V89H27.375V88ZM27.375 41.1875V40.1875H26.375V41.1875H27.375ZM32.6562 41.1875L33.6534 41.1127L33.5841 40.1875H32.6562V41.1875ZM32.9375 44.9375L31.9403 45.0123L32.1292 47.5311L33.7157 45.5656L32.9375 44.9375ZM52.375 45.1562L51.5822 45.7657L51.5848 45.7691L52.375 45.1562ZM33.1562 50.125L32.2851 49.6339L32.1562 49.8625V50.125H33.1562ZM33.1562 66.2812H32.1562V66.5425L32.284 66.7704L33.1562 66.2812ZM47.6875 67.625L46.8857 67.0274L46.8848 67.0287L47.6875 67.625ZM54.9375 58.4688C54.9375 63.4654 53.7954 67.381 51.6056 70.3071L53.2069 71.5054C55.7255 68.1398 56.9375 63.7638 56.9375 58.4688H54.9375ZM51.6056 70.3071C49.4454 73.1938 46.5581 74.625 42.8438 74.625V76.625C47.1711 76.625 50.6588 74.9104 53.2069 71.5054L51.6056 70.3071ZM42.8438 74.625C38.9699 74.625 36.0301 73.4066 33.8981 71.0481L32.4144 72.3894C34.9907 75.2392 38.5093 76.625 42.8438 76.625V74.625ZM32.1562 71.7188V88H34.1562V71.7188H32.1562ZM33.1562 87H27.375V89H33.1562V87ZM28.375 88V41.1875H26.375V88H28.375ZM27.375 42.1875H32.6562V40.1875H27.375V42.1875ZM31.6591 41.2623L31.9403 45.0123L33.9347 44.8627L33.6534 41.1127L31.6591 41.2623ZM33.7157 45.5656C35.8561 42.9137 38.8246 41.5625 42.75 41.5625V39.5625C38.3004 39.5625 34.7272 41.128 32.1593 44.3094L33.7157 45.5656ZM42.75 41.5625C46.5206 41.5625 49.4284 42.9639 51.5822 45.7657L53.1678 44.5468C50.6133 41.2236 47.1044 39.5625 42.75 39.5625V41.5625ZM51.5848 45.7691C53.778 48.5972 54.9375 52.6125 54.9375 57.9375H56.9375C56.9375 52.3459 55.722 47.8403 53.1652 44.5434L51.5848 45.7691ZM54.9375 57.9375V58.4688H56.9375V57.9375H54.9375ZM51.1562 57.8125C51.1562 53.868 50.3165 50.6243 48.5242 48.1886L46.9133 49.3739C48.371 51.3549 49.1562 54.132 49.1562 57.8125H51.1562ZM48.5242 48.1886C46.7034 45.7142 44.17 44.4688 41.0312 44.4688V46.4688C43.5591 46.4688 45.4841 47.4316 46.9133 49.3739L48.5242 48.1886ZM41.0312 44.4688C37.1622 44.4688 34.2084 46.2224 32.2851 49.6339L34.0274 50.6161C35.6041 47.8192 37.9003 46.4688 41.0312 46.4688V44.4688ZM32.1562 50.125V66.2812H34.1562V50.125H32.1562ZM32.284 66.7704C33.2222 68.4433 34.4345 69.7403 35.9341 70.614C37.4332 71.4876 39.1648 71.9062 41.0938 71.9062V69.9062C39.4602 69.9062 38.0876 69.5541 36.9409 68.886C35.7947 68.2181 34.8194 67.2025 34.0285 65.7921L32.284 66.7704ZM41.0938 71.9062C44.1747 71.9062 46.6729 70.6678 48.4902 68.2213L46.8848 67.0287C45.4521 68.9572 43.5545 69.9062 41.0938 69.9062V71.9062ZM48.4893 68.2226C50.3188 65.7678 51.1562 62.2461 51.1562 57.8125H49.1562C49.1562 62.0455 48.3479 65.0655 46.8857 67.0274L48.4893 68.2226ZM81.2188 62.4062L80.6188 63.2062L80.6267 63.2122L80.6348 63.2181L81.2188 62.4062ZM75.0625 60.1562L74.853 61.1341L74.8544 61.1344L75.0625 60.1562ZM68.0938 57.9062L67.6379 58.7963L67.6422 58.7985L68.0938 57.9062ZM64.2812 54.7812L63.4513 55.3393L63.458 55.349L64.2812 54.7812ZM66.5625 43.4375L65.9311 42.662L65.9278 42.6648L66.5625 43.4375ZM84.875 43.5312L84.2348 44.2995L84.2381 44.3022L84.875 43.5312ZM88.4688 51.125V52.125H89.4688V51.125H88.4688ZM82.6562 51.125H81.6562V52.125H82.6562V51.125ZM80.625 47.0312L79.9732 47.7897L79.9791 47.7946L80.625 47.0312ZM76.4688 55.4688L76.2496 56.4444L76.2511 56.4448L76.4688 55.4688ZM87.4688 61.0312L86.6388 61.5891L86.6441 61.5969L86.6495 61.6047L87.4688 61.0312ZM85.1562 72.9062L85.7563 73.7063L85.7606 73.7029L85.1562 72.9062ZM63.6562 70.1875L62.8272 70.7469L62.8351 70.7583L63.6562 70.1875ZM61.9062 64.5938V63.5938H60.9062V64.5938H61.9062ZM67.6875 64.5938L68.6861 64.5401L68.6352 63.5938H67.6875V64.5938ZM70 69.2188L69.3767 70.0007L69.3829 70.0057L69.3892 70.0105L70 69.2188ZM81 69.5938L81.5547 70.4258L81.5577 70.4238L81 69.5938ZM84 66.0312C84 64.1727 83.2716 62.651 81.8027 61.5944L80.6348 63.2181C81.5409 63.8698 82 64.7648 82 66.0312H84ZM81.8187 61.6063C80.4672 60.5926 78.2309 59.808 75.2706 59.1781L74.8544 61.1344C77.7691 61.7545 79.637 62.4699 80.6188 63.2062L81.8187 61.6063ZM75.272 59.1784C72.3994 58.5629 70.1683 57.8353 68.5453 57.014L67.6422 58.7985C69.4775 59.7272 71.8922 60.4996 74.853 61.1341L75.272 59.1784ZM68.5496 57.0162C66.9447 56.1942 65.8194 55.2502 65.1045 54.2135L63.458 55.349C64.4097 56.7289 65.8261 57.8683 67.6379 58.7963L68.5496 57.0162ZM65.1111 54.2233C64.425 53.2029 64.0625 51.9663 64.0625 50.4688H62.0625C62.0625 52.3046 62.5125 53.943 63.4514 55.3392L65.1111 54.2233ZM64.0625 50.4688C64.0625 48.0265 65.0715 45.9564 67.1972 44.2102L65.9278 42.6648C63.3868 44.752 62.0625 47.3694 62.0625 50.4688H64.0625ZM67.1939 44.213C69.3357 42.4692 72.0987 41.5625 75.5625 41.5625V39.5625C71.7347 39.5625 68.4977 40.5725 65.9311 42.662L67.1939 44.213ZM75.5625 41.5625C79.2198 41.5625 82.0795 42.5034 84.2348 44.2995L85.5152 42.763C82.9205 40.6008 79.5719 39.5625 75.5625 39.5625V41.5625ZM84.2381 44.3022C86.4061 46.0931 87.4688 48.3427 87.4688 51.125H89.4688C89.4688 47.7407 88.1356 44.9277 85.5119 42.7603L84.2381 44.3022ZM88.4688 50.125H82.6562V52.125H88.4688V50.125ZM83.6562 51.125C83.6562 49.2099 82.8193 47.578 81.2709 46.2679L79.9791 47.7946C81.139 48.7762 81.6562 49.8734 81.6562 51.125H83.6562ZM81.2768 46.2728C79.7333 44.9464 77.8025 44.3125 75.5625 44.3125V46.3125C77.4058 46.3125 78.85 46.8244 79.9732 47.7897L81.2768 46.2728ZM75.5625 44.3125C73.3243 44.3125 71.4348 44.7991 70.0139 45.8959L71.2361 47.4791C72.1902 46.7426 73.5923 46.3125 75.5625 46.3125V44.3125ZM70.0139 45.8959C68.5852 46.9988 67.8438 48.4871 67.8438 50.2812H69.8438C69.8438 49.1171 70.2898 48.2096 71.2361 47.4791L70.0139 45.8959ZM67.8438 50.2812C67.8438 51.9915 68.5478 53.3733 69.96 54.2792L71.04 52.5958C70.2438 52.0851 69.8438 51.3626 69.8438 50.2812H67.8438ZM69.96 54.2792C71.2248 55.0905 73.3671 55.7969 76.2496 56.4444L76.6879 54.4931C73.8204 53.8489 71.9836 53.2011 71.04 52.5958L69.96 54.2792ZM76.2511 56.4448C79.1016 57.0805 81.3598 57.8292 83.0528 58.6757L83.9472 56.8868C82.0568 55.9416 79.6276 55.1487 76.6864 54.4927L76.2511 56.4448ZM83.0528 58.6757C84.7362 59.5174 85.9062 60.4992 86.6388 61.5891L88.2987 60.4734C87.3229 59.0216 85.8471 57.8368 83.9472 56.8868L83.0528 58.6757ZM86.6495 61.6047C87.3861 62.657 87.7812 63.9782 87.7812 65.625H89.7812C89.7812 63.6468 89.3014 61.9055 88.288 60.4578L86.6495 61.6047ZM87.7812 65.625C87.7812 68.3315 86.7205 70.4644 84.5519 72.1096L85.7606 73.7029C88.4253 71.6815 89.7812 68.9602 89.7812 65.625H87.7812ZM84.5563 72.1063C82.3553 73.7569 79.448 74.625 75.75 74.625V76.625C79.7604 76.625 83.1238 75.6806 85.7562 73.7062L84.5563 72.1063ZM75.75 74.625C73.1601 74.625 70.9111 74.1671 68.9804 73.279L68.1446 75.096C70.3806 76.1246 72.9232 76.625 75.75 76.625V74.625ZM68.9804 73.279C67.0422 72.3874 65.5528 71.1639 64.4774 69.6167L62.8351 70.7583C64.1347 72.6278 65.9162 74.0709 68.1446 75.096L68.9804 73.279ZM64.4852 69.6282C63.425 68.0567 62.9062 66.3856 62.9062 64.5938H60.9062C60.9062 66.8019 61.5542 68.8599 62.8273 70.7468L64.4852 69.6282ZM61.9062 65.5938H67.6875V63.5938H61.9062V65.5938ZM66.6889 64.6474C66.8075 66.8522 67.7022 68.666 69.3767 70.0007L70.6233 68.4368C69.4228 67.4799 68.7759 66.2103 68.6861 64.5401L66.6889 64.6474ZM69.3892 70.0105C71.0675 71.3052 73.2185 71.9062 75.75 71.9062V69.9062C73.5315 69.9062 71.8491 69.3823 70.6108 68.427L69.3892 70.0105ZM75.75 71.9062C78.0611 71.9062 80.0257 71.4451 81.5547 70.4258L80.4453 68.7617C79.3493 69.4924 77.8139 69.9062 75.75 69.9062V71.9062ZM81.5577 70.4238C83.1394 69.3611 84 67.876 84 66.0312H82C82 67.1448 81.5273 68.0347 80.4423 68.7637L81.5577 70.4238Z" fill="black"/>
</svg>
