<svg width="331" height="82" viewBox="0 0 331 82" fill="none" xmlns="http://www.w3.org/2000/svg">
<g filter="url(#filter0_d)">
<path d="M11.2812 41.1875V59H5.28125V13.5H22.0625C27.0417 13.5 30.9375 14.7708 33.75 17.3125C36.5833 19.8542 38 23.2188 38 27.4062C38 31.8229 36.6146 35.2292 33.8438 37.625C31.0938 40 27.1458 41.1875 22 41.1875H11.2812ZM11.2812 36.2812H22.0625C25.2708 36.2812 27.7292 35.5312 29.4375 34.0312C31.1458 32.5104 32 30.3229 32 27.4688C32 24.7604 31.1458 22.5938 29.4375 20.9688C27.7292 19.3438 25.3854 18.5 22.4062 18.4375H11.2812V36.2812ZM65.25 59C64.9167 58.3333 64.6458 57.1458 64.4375 55.4375C61.75 58.2292 58.5417 59.625 54.8125 59.625C51.4792 59.625 48.7396 58.6875 46.5938 56.8125C44.4688 54.9167 43.4062 52.5208 43.4062 49.625C43.4062 46.1042 44.7396 43.375 47.4062 41.4375C50.0938 39.4792 53.8646 38.5 58.7188 38.5H64.3438V35.8438C64.3438 33.8229 63.7396 32.2188 62.5312 31.0312C61.3229 29.8229 59.5417 29.2188 57.1875 29.2188C55.125 29.2188 53.3958 29.7396 52 30.7812C50.6042 31.8229 49.9062 33.0833 49.9062 34.5625H44.0938C44.0938 32.875 44.6875 31.25 45.875 29.6875C47.0833 28.1042 48.7083 26.8542 50.75 25.9375C52.8125 25.0208 55.0729 24.5625 57.5312 24.5625C61.4271 24.5625 64.4792 25.5417 66.6875 27.5C68.8958 29.4375 70.0417 32.1146 70.125 35.5312V51.0938C70.125 54.1979 70.5208 56.6667 71.3125 58.5V59H65.25ZM55.6562 54.5938C57.4688 54.5938 59.1875 54.125 60.8125 53.1875C62.4375 52.25 63.6146 51.0312 64.3438 49.5312V42.5938H59.8125C52.7292 42.5938 49.1875 44.6667 49.1875 48.8125C49.1875 50.625 49.7917 52.0417 51 53.0625C52.2083 54.0833 53.7604 54.5938 55.6562 54.5938ZM89.75 50.5312L97.625 25.1875H103.812L90.2188 64.2188C88.1146 69.8438 84.7708 72.6562 80.1875 72.6562L79.0938 72.5625L76.9375 72.1562V67.4688L78.5 67.5938C80.4583 67.5938 81.9792 67.1979 83.0625 66.4062C84.1667 65.6146 85.0729 64.1667 85.7812 62.0625L87.0625 58.625L75 25.1875H81.3125L89.75 50.5312Z" fill="#7E8AF8"/>
<path d="M11.2812 41.1875V40.6875H10.7812V41.1875H11.2812ZM11.2812 59V59.5H11.7812V59H11.2812ZM5.28125 59H4.78125V59.5H5.28125V59ZM5.28125 13.5V13H4.78125V13.5H5.28125ZM33.75 17.3125L33.4148 17.6835L33.4161 17.6847L33.75 17.3125ZM33.8438 37.625L34.1706 38.0034L34.1708 38.0032L33.8438 37.625ZM11.2812 36.2812H10.7812V36.7812H11.2812V36.2812ZM29.4375 34.0312L29.7674 34.407L29.77 34.4047L29.4375 34.0312ZM22.4062 18.4375L22.4167 17.9375H22.4062V18.4375ZM11.2812 18.4375V17.9375H10.7812V18.4375H11.2812ZM10.7812 41.1875V59H11.7812V41.1875H10.7812ZM11.2812 58.5H5.28125V59.5H11.2812V58.5ZM5.78125 59V13.5H4.78125V59H5.78125ZM5.28125 14H22.0625V13H5.28125V14ZM22.0625 14C26.9575 14 30.7199 15.2481 33.4148 17.6835L34.0852 16.9415C31.1551 14.2936 27.1258 13 22.0625 13V14ZM33.4161 17.6847C36.1324 20.1214 37.5 23.3449 37.5 27.4062H38.5C38.5 23.0926 37.0342 19.5869 34.0839 16.9403L33.4161 17.6847ZM37.5 27.4062C37.5 31.7104 36.1552 34.9654 33.5167 37.2468L34.1708 38.0032C37.074 35.4929 38.5 31.9354 38.5 27.4062H37.5ZM33.5169 37.2466C30.8892 39.516 27.0752 40.6875 22 40.6875V41.6875C27.2164 41.6875 31.2983 40.484 34.1706 38.0034L33.5169 37.2466ZM22 40.6875H11.2812V41.6875H22V40.6875ZM11.2812 36.7812H22.0625V35.7812H11.2812V36.7812ZM22.0625 36.7812C25.3427 36.7812 27.9364 36.0146 29.7674 34.407L29.1076 33.6555C27.5219 35.0479 25.199 35.7812 22.0625 35.7812V36.7812ZM29.77 34.4047C31.6104 32.7663 32.5 30.4275 32.5 27.4688H31.5C31.5 30.2183 30.6813 32.2545 29.105 33.6578L29.77 34.4047ZM32.5 27.4688C32.5 24.6457 31.6047 22.3402 29.7821 20.6065L29.0929 21.331C30.6869 22.8473 31.5 24.8751 31.5 27.4688H32.5ZM29.7821 20.6065C27.9614 18.8746 25.4864 18.002 22.4167 17.9376L22.3958 18.9374C25.2844 18.998 27.4969 19.8129 29.0929 21.331L29.7821 20.6065ZM22.4062 17.9375H11.2812V18.9375H22.4062V17.9375ZM10.7812 18.4375V36.2812H11.7812V18.4375H10.7812ZM65.25 59L64.8028 59.2236L64.941 59.5H65.25V59ZM64.4375 55.4375L64.9338 55.377L64.8065 54.3332L64.0773 55.0907L64.4375 55.4375ZM46.5938 56.8125L46.2609 57.1856L46.2648 57.189L46.5938 56.8125ZM47.4062 41.4375L47.7001 41.842L47.7007 41.8416L47.4062 41.4375ZM64.3438 38.5V39H64.8438V38.5H64.3438ZM62.5312 31.0312L62.1777 31.3848L62.1808 31.3879L62.5312 31.0312ZM49.9062 34.5625V35.0625H50.4062V34.5625H49.9062ZM44.0938 34.5625H43.5938V35.0625H44.0938V34.5625ZM45.875 29.6875L45.4775 29.3842L45.4769 29.385L45.875 29.6875ZM50.75 25.9375L50.5469 25.4806L50.5452 25.4814L50.75 25.9375ZM66.6875 27.5L66.3558 27.8741L66.3577 27.8758L66.6875 27.5ZM70.125 35.5312H70.6251L70.6249 35.5191L70.125 35.5312ZM71.3125 58.5H71.8125V58.3967L71.7715 58.3018L71.3125 58.5ZM71.3125 59V59.5H71.8125V59H71.3125ZM64.3438 49.5312L64.7934 49.7498L64.8438 49.6463V49.5312H64.3438ZM64.3438 42.5938H64.8438V42.0938H64.3438V42.5938ZM65.6972 58.7764C65.406 58.194 65.1419 57.0834 64.9338 55.377L63.9412 55.498C64.1497 57.2083 64.4273 58.4727 64.8028 59.2236L65.6972 58.7764ZM64.0773 55.0907C61.4799 57.7888 58.3999 59.125 54.8125 59.125V60.125C58.6834 60.125 62.0201 58.6695 64.7977 55.7843L64.0773 55.0907ZM54.8125 59.125C51.5784 59.125 48.9623 58.2182 46.9227 56.436L46.2648 57.189C48.5168 59.1568 51.3799 60.125 54.8125 60.125V59.125ZM46.9266 56.4394C44.91 54.6402 43.9062 52.3811 43.9062 49.625H42.9062C42.9062 52.6606 44.0275 55.1931 46.2609 57.1856L46.9266 56.4394ZM43.9062 49.625C43.9062 46.2515 45.173 43.6782 47.7001 41.842L47.1124 41.033C44.3062 43.0718 42.9062 45.9569 42.9062 49.625H43.9062ZM47.7007 41.8416C50.2715 39.9683 53.9238 39 58.7188 39V38C53.8053 38 49.916 38.99 47.1118 41.0334L47.7007 41.8416ZM58.7188 39H64.3438V38H58.7188V39ZM64.8438 38.5V35.8438H63.8438V38.5H64.8438ZM64.8438 35.8438C64.8438 33.7166 64.2039 31.974 62.8817 30.6746L62.1808 31.3879C63.2753 32.4635 63.8438 33.9292 63.8438 35.8438H64.8438ZM62.8848 30.6777C61.5519 29.3448 59.6231 28.7188 57.1875 28.7188V29.7188C59.4602 29.7188 61.094 30.3011 62.1777 31.3848L62.8848 30.6777ZM57.1875 28.7188C55.0377 28.7188 53.1983 29.2631 51.701 30.3805L52.299 31.182C53.5934 30.216 55.2123 29.7188 57.1875 29.7188V28.7188ZM51.701 30.3805C50.2041 31.4976 49.4062 32.8963 49.4062 34.5625H50.4062C50.4062 33.2704 51.0043 32.1482 52.299 31.182L51.701 30.3805ZM49.9062 34.0625H44.0938V35.0625H49.9062V34.0625ZM44.5938 34.5625C44.5938 33.0015 45.1405 31.4803 46.2731 29.99L45.4769 29.385C44.2345 31.0197 43.5938 32.7485 43.5938 34.5625H44.5938ZM46.2725 29.9908C47.4243 28.4815 48.9795 27.2805 50.9548 26.3936L50.5452 25.4814C48.4371 26.4278 46.7423 27.7268 45.4775 29.3842L46.2725 29.9908ZM50.9531 26.3944C52.9461 25.5086 55.1366 25.0625 57.5312 25.0625V24.0625C55.0093 24.0625 52.6789 24.5331 50.5469 25.4806L50.9531 26.3944ZM57.5312 25.0625C61.3447 25.0625 64.2649 26.0199 66.3558 27.8741L67.0192 27.1259C64.6935 25.0634 61.5095 24.0625 57.5312 24.0625V25.0625ZM66.3577 27.8758C68.4436 29.7059 69.5446 32.2415 69.6251 35.5434L70.6249 35.5191C70.5387 31.9877 69.348 29.1691 67.0173 27.1242L66.3577 27.8758ZM69.625 35.5312V51.0938H70.625V35.5312H69.625ZM69.625 51.0938C69.625 54.2323 70.024 56.7773 70.8535 58.6982L71.7715 58.3018C71.0177 56.556 70.625 54.1636 70.625 51.0938H69.625ZM70.8125 58.5V59H71.8125V58.5H70.8125ZM71.3125 58.5H65.25V59.5H71.3125V58.5ZM55.6562 55.0938C57.5596 55.0938 59.3642 54.6003 61.0624 53.6206L60.5626 52.7544C59.0108 53.6497 57.3779 54.0938 55.6562 54.0938V55.0938ZM61.0624 53.6206C62.7627 52.6396 64.0153 51.3507 64.7934 49.7498L63.8941 49.3127C63.2139 50.7118 62.1123 51.8604 60.5626 52.7544L61.0624 53.6206ZM64.8438 49.5312V42.5938H63.8438V49.5312H64.8438ZM64.3438 42.0938H59.8125V43.0938H64.3438V42.0938ZM59.8125 42.0938C56.2384 42.0938 53.4759 42.6138 51.5912 43.7169C49.6652 44.8442 48.6875 46.5643 48.6875 48.8125H49.6875C49.6875 46.9149 50.4807 45.5256 52.0963 44.58C53.7533 43.6101 56.3032 43.0938 59.8125 43.0938V42.0938ZM48.6875 48.8125C48.6875 50.7482 49.3394 52.3142 50.6773 53.4444L51.3227 52.6806C50.2439 51.7692 49.6875 50.5018 49.6875 48.8125H48.6875ZM50.6773 53.4444C51.993 54.556 53.6668 55.0938 55.6562 55.0938V54.0938C53.854 54.0938 52.4237 53.6107 51.3227 52.6806L50.6773 53.4444ZM89.75 50.5312L89.2756 50.6892L89.7664 52.1634L90.2275 50.6796L89.75 50.5312ZM97.625 25.1875V24.6875H97.2568L97.1475 25.0391L97.625 25.1875ZM103.812 25.1875L104.285 25.352L104.516 24.6875H103.812V25.1875ZM90.2188 64.2188L90.6872 64.394L90.6909 64.3832L90.2188 64.2188ZM80.1875 72.6562L80.1448 73.1544L80.1661 73.1562H80.1875V72.6562ZM79.0938 72.5625L79.0012 73.0539L79.0259 73.0585L79.051 73.0607L79.0938 72.5625ZM76.9375 72.1562H76.4375V72.5708L76.8449 72.6476L76.9375 72.1562ZM76.9375 67.4688L76.9774 66.9703L76.4375 66.9272V67.4688H76.9375ZM78.5 67.5938L78.4601 68.0922L78.48 68.0938H78.5V67.5938ZM83.0625 66.4062L82.7711 65.9999L82.7675 66.0026L83.0625 66.4062ZM85.7812 62.0625L85.3127 61.8879L85.3099 61.8954L85.3074 61.903L85.7812 62.0625ZM87.0625 58.625L87.531 58.7996L87.5951 58.6278L87.5328 58.4553L87.0625 58.625ZM75 25.1875V24.6875H74.2881L74.5297 25.3572L75 25.1875ZM81.3125 25.1875L81.7869 25.0296L81.673 24.6875H81.3125V25.1875ZM90.2275 50.6796L98.1025 25.3359L97.1475 25.0391L89.2725 50.3829L90.2275 50.6796ZM97.625 25.6875H103.812V24.6875H97.625V25.6875ZM103.34 25.023L89.7466 64.0543L90.6909 64.3832L104.285 25.352L103.34 25.023ZM89.7504 64.0436C88.7177 66.8043 87.3969 68.8303 85.811 70.1642C84.2339 71.4908 82.3677 72.1562 80.1875 72.1562V73.1562C82.5907 73.1562 84.688 72.4155 86.4547 70.9295C88.2125 69.451 89.6156 67.2582 90.6871 64.3939L89.7504 64.0436ZM80.2302 72.1581L79.1365 72.0643L79.051 73.0607L80.1448 73.1544L80.2302 72.1581ZM79.1863 72.0711L77.0301 71.6649L76.8449 72.6476L79.0012 73.0539L79.1863 72.0711ZM77.4375 72.1562V67.4688H76.4375V72.1562H77.4375ZM76.8976 67.9672L78.4601 68.0922L78.5399 67.0953L76.9774 66.9703L76.8976 67.9672ZM78.5 68.0938C80.5177 68.0938 82.1573 67.687 83.3575 66.8099L82.7675 66.0026C81.801 66.7088 80.3989 67.0938 78.5 67.0938V68.0938ZM83.3538 66.8126C84.582 65.932 85.5327 64.368 86.2551 62.222L85.3074 61.903C84.6131 63.9653 83.7513 65.2971 82.7712 65.9999L83.3538 66.8126ZM86.2498 62.2371L87.531 58.7996L86.594 58.4504L85.3127 61.8879L86.2498 62.2371ZM87.5328 58.4553L75.4703 25.0178L74.5297 25.3572L86.5922 58.7947L87.5328 58.4553ZM75 25.6875H81.3125V24.6875H75V25.6875ZM80.8381 25.3454L89.2756 50.6892L90.2244 50.3733L81.7869 25.0296L80.8381 25.3454Z" fill="black"/>
</g>
<g filter="url(#filter1_b)">
<path d="M129.062 50.0312C129.062 48.4688 128.469 47.2604 127.281 46.4062C126.115 45.5312 124.062 44.7812 121.125 44.1562C118.208 43.5312 115.885 42.7812 114.156 41.9062C112.448 41.0312 111.177 39.9896 110.344 38.7812C109.531 37.5729 109.125 36.1354 109.125 34.4688C109.125 31.6979 110.292 29.3542 112.625 27.4375C114.979 25.5208 117.979 24.5625 121.625 24.5625C125.458 24.5625 128.562 25.5521 130.938 27.5312C133.333 29.5104 134.531 32.0417 134.531 35.125H128.719C128.719 33.5417 128.042 32.1771 126.688 31.0312C125.354 29.8854 123.667 29.3125 121.625 29.3125C119.521 29.3125 117.875 29.7708 116.688 30.6875C115.5 31.6042 114.906 32.8021 114.906 34.2812C114.906 35.6771 115.458 36.7292 116.562 37.4375C117.667 38.1458 119.656 38.8229 122.531 39.4688C125.427 40.1146 127.771 40.8854 129.562 41.7812C131.354 42.6771 132.677 43.7604 133.531 45.0312C134.406 46.2812 134.844 47.8125 134.844 49.625C134.844 52.6458 133.635 55.0729 131.219 56.9062C128.802 58.7188 125.667 59.625 121.812 59.625C119.104 59.625 116.708 59.1458 114.625 58.1875C112.542 57.2292 110.906 55.8958 109.719 54.1875C108.552 52.4583 107.969 50.5938 107.969 48.5938H113.75C113.854 50.5312 114.625 52.0729 116.062 53.2188C117.521 54.3438 119.438 54.9062 121.812 54.9062C124 54.9062 125.75 54.4688 127.062 53.5938C128.396 52.6979 129.062 51.5104 129.062 50.0312ZM147.844 25.1875L148.031 29.4375C150.615 26.1875 153.99 24.5625 158.156 24.5625C165.302 24.5625 168.906 28.5938 168.969 36.6562V59H163.188V36.625C163.167 34.1875 162.604 32.3854 161.5 31.2188C160.417 30.0521 158.719 29.4688 156.406 29.4688C154.531 29.4688 152.885 29.9688 151.469 30.9688C150.052 31.9688 148.948 33.2812 148.156 34.9062V59H142.375V25.1875H147.844ZM198.562 59C198.229 58.3333 197.958 57.1458 197.75 55.4375C195.062 58.2292 191.854 59.625 188.125 59.625C184.792 59.625 182.052 58.6875 179.906 56.8125C177.781 54.9167 176.719 52.5208 176.719 49.625C176.719 46.1042 178.052 43.375 180.719 41.4375C183.406 39.4792 187.177 38.5 192.031 38.5H197.656V35.8438C197.656 33.8229 197.052 32.2188 195.844 31.0312C194.635 29.8229 192.854 29.2188 190.5 29.2188C188.438 29.2188 186.708 29.7396 185.312 30.7812C183.917 31.8229 183.219 33.0833 183.219 34.5625H177.406C177.406 32.875 178 31.25 179.188 29.6875C180.396 28.1042 182.021 26.8542 184.062 25.9375C186.125 25.0208 188.385 24.5625 190.844 24.5625C194.74 24.5625 197.792 25.5417 200 27.5C202.208 29.4375 203.354 32.1146 203.438 35.5312V51.0938C203.438 54.1979 203.833 56.6667 204.625 58.5V59H198.562ZM188.969 54.5938C190.781 54.5938 192.5 54.125 194.125 53.1875C195.75 52.25 196.927 51.0312 197.656 49.5312V42.5938H193.125C186.042 42.5938 182.5 44.6667 182.5 48.8125C182.5 50.625 183.104 52.0417 184.312 53.0625C185.521 54.0833 187.073 54.5938 188.969 54.5938ZM241.062 42.4688C241.062 47.6146 239.885 51.7604 237.531 54.9062C235.177 58.0521 231.99 59.625 227.969 59.625C223.865 59.625 220.635 58.3229 218.281 55.7188V72H212.5V25.1875H217.781L218.062 28.9375C220.417 26.0208 223.688 24.5625 227.875 24.5625C231.938 24.5625 235.146 26.0938 237.5 29.1562C239.875 32.2188 241.062 36.4792 241.062 41.9375V42.4688ZM235.281 41.8125C235.281 38 234.469 34.9896 232.844 32.7812C231.219 30.5729 228.99 29.4688 226.156 29.4688C222.656 29.4688 220.031 31.0208 218.281 34.125V50.2812C220.01 53.3646 222.656 54.9062 226.219 54.9062C228.99 54.9062 231.188 53.8125 232.812 51.625C234.458 49.4167 235.281 46.1458 235.281 41.8125Z" fill="url(#paint0_linear)"/>
<path d="M127.281 46.4062L126.681 47.2062L126.689 47.2122L126.697 47.2181L127.281 46.4062ZM121.125 44.1562L120.915 45.1341L120.917 45.1344L121.125 44.1562ZM114.156 41.9062L113.7 42.7963L113.705 42.7985L114.156 41.9062ZM110.344 38.7812L109.514 39.3393L109.521 39.349L110.344 38.7812ZM112.625 27.4375L111.994 26.662L111.99 26.6648L112.625 27.4375ZM130.938 27.5312L130.297 28.2995L130.301 28.3022L130.938 27.5312ZM134.531 35.125V36.125H135.531V35.125H134.531ZM128.719 35.125H127.719V36.125H128.719V35.125ZM126.688 31.0312L126.036 31.7897L126.042 31.7946L126.688 31.0312ZM122.531 39.4688L122.312 40.4444L122.314 40.4448L122.531 39.4688ZM133.531 45.0312L132.701 45.5891L132.707 45.5969L132.712 45.6047L133.531 45.0312ZM131.219 56.9062L131.819 57.7063L131.823 57.7029L131.219 56.9062ZM109.719 54.1875L108.89 54.7469L108.898 54.7583L109.719 54.1875ZM107.969 48.5938V47.5938H106.969V48.5938H107.969ZM113.75 48.5938L114.749 48.5401L114.698 47.5938H113.75V48.5938ZM116.062 53.2188L115.439 54.0007L115.445 54.0057L115.452 54.0105L116.062 53.2188ZM127.062 53.5938L127.617 54.4258L127.62 54.4238L127.062 53.5938ZM130.062 50.0312C130.062 48.1727 129.334 46.651 127.865 45.5944L126.697 47.2181C127.603 47.8698 128.062 48.7648 128.062 50.0312H130.062ZM127.881 45.6063C126.53 44.5926 124.293 43.808 121.333 43.1781L120.917 45.1344C123.832 45.7545 125.699 46.4699 126.681 47.2062L127.881 45.6063ZM121.335 43.1784C118.462 42.5629 116.231 41.8353 114.608 41.014L113.705 42.7985C115.54 43.7272 117.955 44.4996 120.915 45.1341L121.335 43.1784ZM114.612 41.0162C113.007 40.1942 111.882 39.2502 111.167 38.2135L109.521 39.349C110.472 40.7289 111.889 41.8683 113.7 42.7963L114.612 41.0162ZM111.174 38.2233C110.487 37.2029 110.125 35.9663 110.125 34.4688H108.125C108.125 36.3046 108.575 37.943 109.514 39.3392L111.174 38.2233ZM110.125 34.4688C110.125 32.0265 111.134 29.9564 113.26 28.2102L111.99 26.6648C109.449 28.752 108.125 31.3694 108.125 34.4688H110.125ZM113.256 28.213C115.398 26.4692 118.161 25.5625 121.625 25.5625V23.5625C117.797 23.5625 114.56 24.5725 111.994 26.662L113.256 28.213ZM121.625 25.5625C125.282 25.5625 128.142 26.5034 130.297 28.2995L131.578 26.763C128.983 24.6008 125.634 23.5625 121.625 23.5625V25.5625ZM130.301 28.3022C132.469 30.0931 133.531 32.3427 133.531 35.125H135.531C135.531 31.7407 134.198 28.9277 131.574 26.7603L130.301 28.3022ZM134.531 34.125H128.719V36.125H134.531V34.125ZM129.719 35.125C129.719 33.2099 128.882 31.578 127.333 30.2679L126.042 31.7946C127.202 32.7762 127.719 33.8734 127.719 35.125H129.719ZM127.339 30.2728C125.796 28.9464 123.865 28.3125 121.625 28.3125V30.3125C123.468 30.3125 124.912 30.8244 126.036 31.7897L127.339 30.2728ZM121.625 28.3125C119.387 28.3125 117.497 28.7991 116.076 29.8959L117.299 31.4791C118.253 30.7426 119.655 30.3125 121.625 30.3125V28.3125ZM116.076 29.8959C114.648 30.9988 113.906 32.4871 113.906 34.2812H115.906C115.906 33.1171 116.352 32.2096 117.299 31.4791L116.076 29.8959ZM113.906 34.2812C113.906 35.9915 114.61 37.3733 116.023 38.2792L117.102 36.5958C116.306 36.0851 115.906 35.3626 115.906 34.2812H113.906ZM116.023 38.2792C117.287 39.0905 119.43 39.7969 122.312 40.4444L122.75 38.4931C119.883 37.8489 118.046 37.2011 117.102 36.5958L116.023 38.2792ZM122.314 40.4448C125.164 41.0805 127.422 41.8292 129.115 42.6757L130.01 40.8868C128.119 39.9416 125.69 39.1487 122.749 38.4927L122.314 40.4448ZM129.115 42.6757C130.799 43.5174 131.969 44.4992 132.701 45.5891L134.361 44.4734C133.385 43.0216 131.91 41.8368 130.01 40.8868L129.115 42.6757ZM132.712 45.6047C133.449 46.657 133.844 47.9782 133.844 49.625H135.844C135.844 47.6468 135.364 45.9055 134.35 44.4578L132.712 45.6047ZM133.844 49.625C133.844 52.3315 132.783 54.4644 130.614 56.1096L131.823 57.7029C134.488 55.6815 135.844 52.9602 135.844 49.625H133.844ZM130.619 56.1063C128.418 57.7569 125.51 58.625 121.812 58.625V60.625C125.823 60.625 129.186 59.6806 131.819 57.7062L130.619 56.1063ZM121.812 58.625C119.223 58.625 116.974 58.1671 115.043 57.279L114.207 59.096C116.443 60.1246 118.986 60.625 121.812 60.625V58.625ZM115.043 57.279C113.105 56.3874 111.615 55.1639 110.54 53.6167L108.898 54.7583C110.197 56.6278 111.979 58.0709 114.207 59.096L115.043 57.279ZM110.548 53.6282C109.487 52.0567 108.969 50.3856 108.969 48.5938H106.969C106.969 50.8019 107.617 52.8599 108.89 54.7468L110.548 53.6282ZM107.969 49.5938H113.75V47.5938H107.969V49.5938ZM112.751 48.6474C112.87 50.8522 113.765 52.666 115.439 54.0007L116.686 52.4368C115.485 51.4799 114.838 50.2103 114.749 48.5401L112.751 48.6474ZM115.452 54.0105C117.13 55.3052 119.281 55.9062 121.812 55.9062V53.9062C119.594 53.9062 117.912 53.3823 116.673 52.427L115.452 54.0105ZM121.812 55.9062C124.124 55.9062 126.088 55.4451 127.617 54.4258L126.508 52.7617C125.412 53.4924 123.876 53.9062 121.812 53.9062V55.9062ZM127.62 54.4238C129.202 53.3611 130.062 51.876 130.062 50.0312H128.062C128.062 51.1448 127.59 52.0347 126.505 52.7637L127.62 54.4238ZM147.844 25.1875L148.843 25.1434L148.801 24.1875H147.844V25.1875ZM148.031 29.4375L147.032 29.4816L147.15 32.1531L148.814 30.0597L148.031 29.4375ZM168.969 36.6562L169.969 36.6562L169.969 36.6485L168.969 36.6562ZM168.969 59V60H169.969V59H168.969ZM163.188 59H162.188V60H163.188V59ZM163.188 36.625H164.188L164.187 36.6165L163.188 36.625ZM161.5 31.2188L160.767 31.8992L160.774 31.9061L161.5 31.2188ZM148.156 34.9062L147.257 34.4683L147.156 34.6756V34.9062H148.156ZM148.156 59V60H149.156V59H148.156ZM142.375 59H141.375V60H142.375V59ZM142.375 25.1875V24.1875H141.375V25.1875H142.375ZM146.845 25.2316L147.032 29.4816L149.03 29.3934L148.843 25.1434L146.845 25.2316ZM148.814 30.0597C151.207 27.0494 154.293 25.5625 158.156 25.5625V23.5625C153.686 23.5625 150.022 25.3256 147.248 28.8153L148.814 30.0597ZM158.156 25.5625C161.541 25.5625 163.917 26.5117 165.473 28.2525C167.05 30.0157 167.939 32.7598 167.969 36.664L169.969 36.6485C169.936 32.4902 168.992 29.1874 166.964 26.9194C164.916 24.6289 161.917 23.5625 158.156 23.5625V25.5625ZM167.969 36.6562V59H169.969V36.6562H167.969ZM168.969 58H163.188V60H168.969V58ZM164.188 59V36.625H162.188V59H164.188ZM164.187 36.6165C164.166 34.0535 163.575 31.9568 162.226 30.5314L160.774 31.9061C161.633 32.814 162.168 34.3215 162.188 36.6335L164.187 36.6165ZM162.233 30.5383C160.888 29.0903 158.869 28.4688 156.406 28.4688V30.4688C158.568 30.4688 159.945 31.0139 160.767 31.8992L162.233 30.5383ZM156.406 28.4688C154.342 28.4688 152.491 29.0229 150.892 30.1518L152.045 31.7857C153.279 30.9146 154.72 30.4688 156.406 30.4688V28.4688ZM150.892 30.1518C149.332 31.2531 148.119 32.6985 147.257 34.4683L149.055 35.3442C149.776 33.864 150.772 32.6844 152.045 31.7857L150.892 30.1518ZM147.156 34.9062V59H149.156V34.9062H147.156ZM148.156 58H142.375V60H148.156V58ZM143.375 59V25.1875H141.375V59H143.375ZM142.375 26.1875H147.844V24.1875H142.375V26.1875ZM198.562 59L197.668 59.4472L197.944 60H198.562V59ZM197.75 55.4375L198.743 55.3164L198.488 53.2289L197.03 54.744L197.75 55.4375ZM179.906 56.8125L179.24 57.5587L179.248 57.5655L179.906 56.8125ZM180.719 41.4375L181.307 42.2465L181.308 42.2457L180.719 41.4375ZM197.656 38.5V39.5H198.656V38.5H197.656ZM195.844 31.0312L195.137 31.7384L195.143 31.7445L195.844 31.0312ZM183.219 34.5625V35.5625H184.219V34.5625H183.219ZM177.406 34.5625H176.406V35.5625H177.406V34.5625ZM179.188 29.6875L178.393 29.0808L178.391 29.0824L179.188 29.6875ZM184.062 25.9375L183.656 25.0237L183.653 25.0252L184.062 25.9375ZM200 27.5L199.337 28.2482L199.34 28.2517L200 27.5ZM203.438 35.5312H204.438V35.5191L204.437 35.5069L203.438 35.5312ZM204.625 58.5H205.625V58.2933L205.543 58.1036L204.625 58.5ZM204.625 59V60H205.625V59H204.625ZM197.656 49.5312L198.556 49.9684L198.656 49.7614V49.5312H197.656ZM197.656 42.5938H198.656V41.5938H197.656V42.5938ZM199.457 58.5528C199.208 58.0547 198.951 57.021 198.743 55.3164L196.757 55.5586C196.966 57.2707 197.25 58.612 197.668 59.4472L199.457 58.5528ZM197.03 54.744C194.522 57.3484 191.571 58.625 188.125 58.625V60.625C192.138 60.625 195.603 59.1099 198.47 56.131L197.03 54.744ZM188.125 58.625C184.99 58.625 182.498 57.7488 180.564 56.0595L179.248 57.5655C181.607 59.6262 184.593 60.625 188.125 60.625V58.625ZM180.572 56.0663C178.664 54.3638 177.719 52.2413 177.719 49.625H175.719C175.719 52.8003 176.899 55.4695 179.241 57.5587L180.572 56.0663ZM177.719 49.625C177.719 46.3987 178.919 43.9813 181.307 42.2465L180.131 40.6285C177.185 42.7687 175.719 45.8096 175.719 49.625H177.719ZM181.308 42.2457C183.762 40.4575 187.296 39.5 192.031 39.5V37.5C187.059 37.5 183.051 38.5008 180.13 40.6293L181.308 42.2457ZM192.031 39.5H197.656V37.5H192.031V39.5ZM198.656 38.5V35.8438H196.656V38.5H198.656ZM198.656 35.8438C198.656 33.6103 197.981 31.7292 196.545 30.318L195.143 31.7445C196.124 32.7083 196.656 34.0355 196.656 35.8438H198.656ZM196.551 30.3241C195.093 28.8666 193.017 28.2188 190.5 28.2188V30.2188C192.691 30.2188 194.178 30.7792 195.137 31.7384L196.551 30.3241ZM190.5 28.2188C188.263 28.2188 186.313 28.7867 184.714 29.9798L185.911 31.5827C187.103 30.6925 188.612 30.2188 190.5 30.2188V28.2188ZM184.714 29.9798C183.116 31.1723 182.219 32.7093 182.219 34.5625H184.219C184.219 33.4574 184.717 32.4735 185.911 31.5827L184.714 29.9798ZM183.219 33.5625H177.406V35.5625H183.219V33.5625ZM178.406 34.5625C178.406 33.1279 178.906 31.7106 179.984 30.2926L178.391 29.0824C177.094 30.7894 176.406 32.6221 176.406 34.5625H178.406ZM179.982 30.2942C181.078 28.8589 182.563 27.7068 184.472 26.8498L183.653 25.0252C181.478 26.0015 179.714 27.3495 178.393 29.0808L179.982 30.2942ZM184.469 26.8513C186.392 25.9964 188.513 25.5625 190.844 25.5625V23.5625C188.258 23.5625 185.858 24.0453 183.656 25.0237L184.469 26.8513ZM190.844 25.5625C194.575 25.5625 197.363 26.4981 199.337 28.2482L200.663 26.7518C198.22 24.5852 194.904 23.5625 190.844 23.5625V25.5625ZM199.34 28.2517C201.304 29.9744 202.36 32.3683 202.438 35.5556L204.437 35.5069C204.348 31.8608 203.113 28.9006 200.66 26.7483L199.34 28.2517ZM202.438 35.5312V51.0938H204.438V35.5312H202.438ZM202.438 51.0938C202.438 54.2666 202.84 56.888 203.707 58.8964L205.543 58.1036C204.827 56.4454 204.438 54.1292 204.438 51.0938H202.438ZM203.625 58.5V59H205.625V58.5H203.625ZM204.625 58H198.562V60H204.625V58ZM188.969 55.5938C190.963 55.5938 192.853 55.0756 194.625 54.0537L193.625 52.3213C192.147 53.1744 190.6 53.5938 188.969 53.5938V55.5938ZM194.625 54.0537C196.4 53.0293 197.728 51.6701 198.556 49.9684L196.757 49.0941C196.126 50.3924 195.1 51.4707 193.625 52.3213L194.625 54.0537ZM198.656 49.5312V42.5938H196.656V49.5312H198.656ZM197.656 41.5938H193.125V43.5938H197.656V41.5938ZM193.125 41.5938C189.519 41.5938 186.65 42.1157 184.651 43.2854C182.57 44.5035 181.5 46.389 181.5 48.8125H183.5C183.5 47.0902 184.201 45.8663 185.661 45.0115C187.205 44.1083 189.648 43.5938 193.125 43.5938V41.5938ZM181.5 48.8125C181.5 50.8715 182.2 52.5866 183.667 53.8264L184.958 52.2986C184.009 51.4967 183.5 50.3785 183.5 48.8125H181.5ZM183.667 53.8264C185.09 55.0286 186.886 55.5938 188.969 55.5938V53.5938C187.26 53.5938 185.952 53.1381 184.958 52.2986L183.667 53.8264ZM218.281 55.7188L219.023 55.0481L217.281 53.1214V55.7188H218.281ZM218.281 72V73H219.281V72H218.281ZM212.5 72H211.5V73H212.5V72ZM212.5 25.1875V24.1875H211.5V25.1875H212.5ZM217.781 25.1875L218.778 25.1127L218.709 24.1875H217.781V25.1875ZM218.062 28.9375L217.065 29.0123L217.254 31.5311L218.841 29.5656L218.062 28.9375ZM237.5 29.1562L236.707 29.7657L236.71 29.7691L237.5 29.1562ZM218.281 34.125L217.41 33.6339L217.281 33.8625V34.125H218.281ZM218.281 50.2812H217.281V50.5425L217.409 50.7704L218.281 50.2812ZM232.812 51.625L232.011 51.0274L232.01 51.0287L232.812 51.625ZM240.062 42.4688C240.062 47.4654 238.92 51.381 236.731 54.3071L238.332 55.5054C240.85 52.1398 242.062 47.7638 242.062 42.4688H240.062ZM236.731 54.3071C234.57 57.1938 231.683 58.625 227.969 58.625V60.625C232.296 60.625 235.784 58.9104 238.332 55.5054L236.731 54.3071ZM227.969 58.625C224.095 58.625 221.155 57.4066 219.023 55.0481L217.539 56.3894C220.116 59.2392 223.634 60.625 227.969 60.625V58.625ZM217.281 55.7188V72H219.281V55.7188H217.281ZM218.281 71H212.5V73H218.281V71ZM213.5 72V25.1875H211.5V72H213.5ZM212.5 26.1875H217.781V24.1875H212.5V26.1875ZM216.784 25.2623L217.065 29.0123L219.06 28.8627L218.778 25.1127L216.784 25.2623ZM218.841 29.5656C220.981 26.9137 223.95 25.5625 227.875 25.5625V23.5625C223.425 23.5625 219.852 25.128 217.284 28.3094L218.841 29.5656ZM227.875 25.5625C231.646 25.5625 234.553 26.9639 236.707 29.7657L238.293 28.5468C235.738 25.2236 232.229 23.5625 227.875 23.5625V25.5625ZM236.71 29.7691C238.903 32.5972 240.062 36.6125 240.062 41.9375H242.062C242.062 36.3459 240.847 31.8403 238.29 28.5434L236.71 29.7691ZM240.062 41.9375V42.4688H242.062V41.9375H240.062ZM236.281 41.8125C236.281 37.868 235.441 34.6243 233.649 32.1886L232.038 33.3739C233.496 35.3549 234.281 38.132 234.281 41.8125H236.281ZM233.649 32.1886C231.828 29.7142 229.295 28.4688 226.156 28.4688V30.4688C228.684 30.4688 230.609 31.4316 232.038 33.3739L233.649 32.1886ZM226.156 28.4688C222.287 28.4688 219.333 30.2224 217.41 33.6339L219.152 34.6161C220.729 31.8192 223.025 30.4688 226.156 30.4688V28.4688ZM217.281 34.125V50.2812H219.281V34.125H217.281ZM217.409 50.7704C218.347 52.4433 219.559 53.7403 221.059 54.614C222.558 55.4876 224.29 55.9062 226.219 55.9062V53.9062C224.585 53.9062 223.213 53.5541 222.066 52.886C220.92 52.2181 219.944 51.2025 219.153 49.7921L217.409 50.7704ZM226.219 55.9062C229.3 55.9062 231.798 54.6678 233.615 52.2213L232.01 51.0287C230.577 52.9572 228.679 53.9062 226.219 53.9062V55.9062ZM233.614 52.2226C235.444 49.7678 236.281 46.2461 236.281 41.8125H234.281C234.281 46.0455 233.473 49.0655 232.011 51.0274L233.614 52.2226Z" fill="black"/>
</g>
<defs>
<filter id="filter0_d" x="0.78125" y="13" width="107.735" height="68.1562" filterUnits="userSpaceOnUse" color-interpolation-filters="sRGB">
<feFlood flood-opacity="0" result="BackgroundImageFix"/>
<feColorMatrix in="SourceAlpha" type="matrix" values="0 0 0 0 0 0 0 0 0 0 0 0 0 0 0 0 0 0 127 0" result="hardAlpha"/>
<feOffset dy="4"/>
<feGaussianBlur stdDeviation="2"/>
<feComposite in2="hardAlpha" operator="out"/>
<feColorMatrix type="matrix" values="0 0 0 0 0 0 0 0 0 0 0 0 0 0 0 0 0 0 0.25 0"/>
<feBlend mode="normal" in2="BackgroundImageFix" result="effect1_dropShadow"/>
<feBlend mode="normal" in="SourceGraphic" in2="effect1_dropShadow" result="shape"/>
</filter>
<filter id="filter1_b" x="102.969" y="19.5625" width="143.094" height="57.4375" filterUnits="userSpaceOnUse" color-interpolation-filters="sRGB">
<feFlood flood-opacity="0" result="BackgroundImageFix"/>
<feGaussianBlur in="BackgroundImage" stdDeviation="2"/>
<feComposite in2="SourceAlpha" operator="in" result="effect1_backgroundBlur"/>
<feBlend mode="normal" in="SourceGraphic" in2="effect1_backgroundBlur" result="shape"/>
</filter>
<linearGradient id="paint0_linear" x1="175" y1="0" x2="175" y2="75" gradientUnits="userSpaceOnUse">
<stop offset="0.296875" stop-color="#7E8AF8"/>
<stop offset="1" stop-color="#7E8AF8" stop-opacity="0"/>
</linearGradient>
</defs>
</svg>
