<svg width="334" height="81" viewBox="0 0 334 81" fill="none" xmlns="http://www.w3.org/2000/svg">
<g filter="url(#filter0_d)">
<path d="M13.8125 41.1875L10.7188 59H4.84375L12.75 13.5L27.9375 13.5312C32.625 13.5312 36.2396 14.7812 38.7812 17.2812C41.3229 19.7604 42.4167 23.0625 42.0625 27.1875C41.6875 31.5417 39.9479 34.9688 36.8438 37.4688C33.7604 39.9688 29.6875 41.2188 24.625 41.2188L13.8125 41.1875ZM14.6562 36.2812L24.7812 36.3125C27.9688 36.3125 30.5833 35.5104 32.625 33.9062C34.6667 32.3021 35.8646 30.0729 36.2188 27.2188C36.5521 24.6562 36.0208 22.5833 34.625 21C33.2292 19.3958 31.1979 18.5521 28.5312 18.4688L17.75 18.4375L14.6562 36.2812ZM63.7812 59C63.6354 58.3958 63.5625 57.8021 63.5625 57.2188L63.6562 55.4375C60.5521 58.3125 57.2604 59.7083 53.7812 59.625C50.8021 59.5833 48.375 58.6458 46.5 56.8125C44.6458 54.9583 43.8021 52.6458 43.9688 49.875C44.1771 46.2917 45.7396 43.5 48.6562 41.5C51.5938 39.4792 55.4479 38.4688 60.2188 38.4688L66.125 38.5L66.5 35.8125C66.7083 33.7917 66.3125 32.1979 65.3125 31.0312C64.3333 29.8438 62.8542 29.2292 60.875 29.1875C58.9375 29.1458 57.2188 29.625 55.7188 30.625C54.2396 31.6042 53.3333 32.9062 53 34.5312L47.3125 34.5625C47.5 32.5833 48.2708 30.8333 49.625 29.3125C50.9792 27.7708 52.7188 26.5833 54.8438 25.75C56.9688 24.8958 59.1667 24.4896 61.4375 24.5312C64.9583 24.6146 67.6979 25.6875 69.6562 27.75C71.6146 29.7917 72.4375 32.5104 72.125 35.9062L69.375 52.6562L69.2188 55.0625C69.1771 56.2083 69.3021 57.3438 69.5938 58.4688L69.5312 59H63.7812ZM54.9062 54.625C56.7188 54.6667 58.4271 54.2396 60.0312 53.3438C61.6562 52.4271 63.0521 51.1667 64.2188 49.5625L65.4375 42.5938L61.1562 42.5625C57.5938 42.5625 54.8646 43.125 52.9688 44.25C51.0729 45.375 50 46.9688 49.75 49.0312C49.5625 50.6146 49.9271 51.9375 50.8438 53C51.7812 54.0417 53.1354 54.5833 54.9062 54.625ZM88.8438 50.4688L100.875 25.1875H107.125L87.0625 64.625C84.2708 70.1042 80.6875 72.8125 76.3125 72.75C75.5417 72.7292 74.4062 72.5417 72.9062 72.1875L73.4062 67.5L74.875 67.6562C76.6667 67.7396 78.2083 67.3333 79.5 66.4375C80.8125 65.5625 81.9688 64.1354 82.9688 62.1562L85 58.2812L79.1562 25.1875H85.0625L88.8438 50.4688Z" fill="#7E8AF8"/>
</g>
<g filter="url(#filter1_b)">
<path d="M132.062 50.0312C132.062 48.4688 131.469 47.2604 130.281 46.4062C129.115 45.5312 127.062 44.7812 124.125 44.1562C121.208 43.5312 118.885 42.7812 117.156 41.9062C115.448 41.0312 114.177 39.9896 113.344 38.7812C112.531 37.5729 112.125 36.1354 112.125 34.4688C112.125 31.6979 113.292 29.3542 115.625 27.4375C117.979 25.5208 120.979 24.5625 124.625 24.5625C128.458 24.5625 131.562 25.5521 133.938 27.5312C136.333 29.5104 137.531 32.0417 137.531 35.125H131.719C131.719 33.5417 131.042 32.1771 129.688 31.0312C128.354 29.8854 126.667 29.3125 124.625 29.3125C122.521 29.3125 120.875 29.7708 119.688 30.6875C118.5 31.6042 117.906 32.8021 117.906 34.2812C117.906 35.6771 118.458 36.7292 119.562 37.4375C120.667 38.1458 122.656 38.8229 125.531 39.4688C128.427 40.1146 130.771 40.8854 132.562 41.7812C134.354 42.6771 135.677 43.7604 136.531 45.0312C137.406 46.2812 137.844 47.8125 137.844 49.625C137.844 52.6458 136.635 55.0729 134.219 56.9062C131.802 58.7188 128.667 59.625 124.812 59.625C122.104 59.625 119.708 59.1458 117.625 58.1875C115.542 57.2292 113.906 55.8958 112.719 54.1875C111.552 52.4583 110.969 50.5938 110.969 48.5938H116.75C116.854 50.5312 117.625 52.0729 119.062 53.2188C120.521 54.3438 122.438 54.9062 124.812 54.9062C127 54.9062 128.75 54.4688 130.062 53.5938C131.396 52.6979 132.062 51.5104 132.062 50.0312ZM150.844 25.1875L151.031 29.4375C153.615 26.1875 156.99 24.5625 161.156 24.5625C168.302 24.5625 171.906 28.5938 171.969 36.6562V59H166.188V36.625C166.167 34.1875 165.604 32.3854 164.5 31.2188C163.417 30.0521 161.719 29.4688 159.406 29.4688C157.531 29.4688 155.885 29.9688 154.469 30.9688C153.052 31.9688 151.948 33.2812 151.156 34.9062V59H145.375V25.1875H150.844ZM201.562 59C201.229 58.3333 200.958 57.1458 200.75 55.4375C198.062 58.2292 194.854 59.625 191.125 59.625C187.792 59.625 185.052 58.6875 182.906 56.8125C180.781 54.9167 179.719 52.5208 179.719 49.625C179.719 46.1042 181.052 43.375 183.719 41.4375C186.406 39.4792 190.177 38.5 195.031 38.5H200.656V35.8438C200.656 33.8229 200.052 32.2188 198.844 31.0312C197.635 29.8229 195.854 29.2188 193.5 29.2188C191.438 29.2188 189.708 29.7396 188.312 30.7812C186.917 31.8229 186.219 33.0833 186.219 34.5625H180.406C180.406 32.875 181 31.25 182.188 29.6875C183.396 28.1042 185.021 26.8542 187.062 25.9375C189.125 25.0208 191.385 24.5625 193.844 24.5625C197.74 24.5625 200.792 25.5417 203 27.5C205.208 29.4375 206.354 32.1146 206.438 35.5312V51.0938C206.438 54.1979 206.833 56.6667 207.625 58.5V59H201.562ZM191.969 54.5938C193.781 54.5938 195.5 54.125 197.125 53.1875C198.75 52.25 199.927 51.0312 200.656 49.5312V42.5938H196.125C189.042 42.5938 185.5 44.6667 185.5 48.8125C185.5 50.625 186.104 52.0417 187.312 53.0625C188.521 54.0833 190.073 54.5938 191.969 54.5938ZM244.062 42.4688C244.062 47.6146 242.885 51.7604 240.531 54.9062C238.177 58.0521 234.99 59.625 230.969 59.625C226.865 59.625 223.635 58.3229 221.281 55.7188V72H215.5V25.1875H220.781L221.062 28.9375C223.417 26.0208 226.688 24.5625 230.875 24.5625C234.938 24.5625 238.146 26.0938 240.5 29.1562C242.875 32.2188 244.062 36.4792 244.062 41.9375V42.4688ZM238.281 41.8125C238.281 38 237.469 34.9896 235.844 32.7812C234.219 30.5729 231.99 29.4688 229.156 29.4688C225.656 29.4688 223.031 31.0208 221.281 34.125V50.2812C223.01 53.3646 225.656 54.9062 229.219 54.9062C231.99 54.9062 234.188 53.8125 235.812 51.625C237.458 49.4167 238.281 46.1458 238.281 41.8125Z" fill="url(#paint0_linear)"/>
</g>
<defs>
<filter id="filter0_d" x="0.84375" y="13.5" width="110.281" height="67.2511" filterUnits="userSpaceOnUse" color-interpolation-filters="sRGB">
<feFlood flood-opacity="0" result="BackgroundImageFix"/>
<feColorMatrix in="SourceAlpha" type="matrix" values="0 0 0 0 0 0 0 0 0 0 0 0 0 0 0 0 0 0 127 0" result="hardAlpha"/>
<feOffset dy="4"/>
<feGaussianBlur stdDeviation="2"/>
<feComposite in2="hardAlpha" operator="out"/>
<feColorMatrix type="matrix" values="0 0 0 0 0 0 0 0 0 0 0 0 0 0 0 0 0 0 0.25 0"/>
<feBlend mode="normal" in2="BackgroundImageFix" result="effect1_dropShadow"/>
<feBlend mode="normal" in="SourceGraphic" in2="effect1_dropShadow" result="shape"/>
</filter>
<filter id="filter1_b" x="106.969" y="20.5625" width="141.094" height="55.4375" filterUnits="userSpaceOnUse" color-interpolation-filters="sRGB">
<feFlood flood-opacity="0" result="BackgroundImageFix"/>
<feGaussianBlur in="BackgroundImage" stdDeviation="2"/>
<feComposite in2="SourceAlpha" operator="in" result="effect1_backgroundBlur"/>
<feBlend mode="normal" in="SourceGraphic" in2="effect1_backgroundBlur" result="shape"/>
</filter>
<linearGradient id="paint0_linear" x1="178" y1="0" x2="178" y2="75" gradientUnits="userSpaceOnUse">
<stop offset="0.296875" stop-color="#7E8AF8"/>
<stop offset="1" stop-color="#7E8AF8" stop-opacity="0"/>
</linearGradient>
</defs>
</svg>
